<svg width="127" height="99" viewBox="0 0 127 99" fill="none" xmlns="http://www.w3.org/2000/svg">
<path d="M0.894531 75.3389C0.894531 79.529 1.91878 83.3932 3.96728 86.9315C6.01578 90.4698 8.80919 93.2633 12.3475 95.3118C15.8858 97.3603 19.7035 98.3845 23.847 98.3845H74.2681C78.4116 98.3845 82.2759 97.3603 85.8142 95.3118C89.3525 93.2633 92.1925 90.4698 94.241 86.9315C96.2895 83.3932 97.3603 79.529 97.3603 75.3389C97.3603 72.2661 96.7085 69.1468 95.4049 66.0275C98.9432 61.7443 100.712 56.5765 100.712 50.6638C100.712 47.3582 100.061 44.1924 98.8035 41.1662C97.5465 38.14 95.7773 35.5794 93.5892 33.3912C91.401 31.203 88.8404 29.4339 85.8142 28.1768C82.788 26.8732 79.6221 26.268 76.3166 26.268C69.4262 26.268 63.4203 28.9683 58.2525 34.3689C54.6677 32.3204 50.4776 31.2961 45.6822 31.2961C39.1177 31.2961 33.3446 33.3446 28.3165 37.3951C23.2884 41.4455 20.0294 46.6599 18.6327 52.9916C13.4183 54.2021 9.18165 56.8558 5.87611 61.0459C2.57058 65.2361 0.894531 69.9849 0.894531 75.3389ZM8.85575 75.3389C8.85575 71.4281 10.1593 68.076 12.7665 65.2361C15.3737 62.3961 18.6327 60.7666 22.5435 60.301L24.8713 60.1614C25.43 60.1614 25.7559 59.882 25.7559 59.3233L26.0818 56.8093C26.7336 51.7811 28.9217 47.5445 32.6463 44.1924C36.3708 40.7937 40.7472 39.1177 45.7287 39.1177C50.85 39.1177 55.3195 40.8403 59.0906 44.2389C62.9082 47.6376 65.0033 51.8277 65.4688 56.8558L65.7947 59.5561C65.8879 60.0683 66.2138 60.3476 66.7724 60.3476H74.2681C78.3651 60.3476 81.9034 61.8374 84.883 64.817C87.8627 67.7967 89.3525 71.2884 89.3525 75.3854C89.3525 79.6221 87.8627 83.207 84.9296 86.1866C81.9965 89.1663 78.4116 90.6561 74.3146 90.6561H23.847C19.75 90.6561 16.2583 89.1663 13.2786 86.1401C10.3456 83.1139 8.85575 79.529 8.85575 75.3389ZM40.0488 18.2137C40.0488 19.331 40.4213 20.3087 41.1662 21.1467L44.2389 24.1264C45.4029 25.011 46.3806 25.3834 47.2186 25.2903C48.1963 25.2903 49.0343 24.8713 49.7792 24.0798C50.5241 23.2884 50.8966 22.3107 50.8966 21.1933C50.8966 20.0759 50.4775 19.1448 49.6861 18.4465L46.9392 15.3737C46.1012 14.6288 45.1701 14.2563 44.0993 14.2563C42.9819 14.2563 42.0042 14.6288 41.2127 15.4203C40.4213 16.1652 40.0488 17.0963 40.0488 18.2137ZM64.9102 38.8383C68.1226 35.719 71.9402 34.1827 76.3166 34.1827C80.9257 34.1827 84.8365 35.7656 88.0489 38.978C91.2613 42.1904 92.8908 46.0546 92.8908 50.6638C92.8908 53.5503 92.0993 56.4368 90.5164 59.2302C86.0004 54.7608 80.5998 52.526 74.2681 52.526H72.7783C71.6143 47.4514 69.0072 42.8888 64.9102 38.8383ZM72.4989 14.2563C72.4989 15.4668 72.8714 16.398 73.5697 17.1429C74.2681 17.8878 75.1992 18.2137 76.3166 18.2137C77.5271 18.2137 78.4582 17.8412 79.2031 17.1429C79.948 16.398 80.2739 15.4668 80.2739 14.2563V4.71219C80.2739 3.59483 79.9015 2.71025 79.1566 1.96534C78.4116 1.22043 77.4805 0.894531 76.3166 0.894531C75.1992 0.894531 74.3146 1.26699 73.5697 1.96534C72.8248 2.66369 72.4989 3.59483 72.4989 4.71219V14.2563ZM98.1983 24.9179C98.1983 26.1283 98.5242 27.0595 99.2225 27.8044C100.2 28.5493 101.178 28.9217 102.109 28.9217C102.947 28.9217 103.878 28.5493 104.856 27.8044L111.514 21.1467C112.258 20.3087 112.631 19.331 112.631 18.1671C112.631 17.0497 112.258 16.1186 111.514 15.3737C110.769 14.6288 109.837 14.2563 108.767 14.2563C107.649 14.2563 106.765 14.6288 106.066 15.3737L99.2225 22.0313C98.5242 22.9159 98.1983 23.847 98.1983 24.9179ZM101.876 80.0411C101.876 81.1585 102.249 82.1362 103.04 82.9742L106.066 85.9073C106.765 86.6522 107.649 87.0247 108.767 87.0247C109.884 87.0247 110.815 86.6522 111.56 85.8607C112.305 85.0693 112.677 84.1381 112.677 82.9742C112.677 81.95 112.305 81.0188 111.56 80.2739L108.534 77.2477C107.789 76.5028 106.904 76.1304 105.88 76.1304C104.763 76.1304 103.832 76.5028 103.087 77.2477C102.295 77.9926 101.876 78.9238 101.876 80.0411ZM108.72 50.6638C108.72 51.7346 109.139 52.6192 109.931 53.3641C110.676 54.109 111.653 54.4814 112.771 54.4814H122.268C123.339 54.4814 124.224 54.109 124.968 53.4106C125.713 52.7123 126.039 51.7811 126.039 50.6638C126.039 49.5464 125.667 48.6153 124.968 47.8704C124.27 47.1255 123.339 46.7064 122.268 46.7064H112.771C111.653 46.7064 110.722 47.0789 109.931 47.8704C109.093 48.6618 108.72 49.593 108.72 50.6638Z" fill="#193713"/>
</svg>
