<svg width="32" height="22" viewBox="0 0 32 22" fill="none" xmlns="http://www.w3.org/2000/svg">
<path d="M26.6242 9.40488C26.8204 8.9021 26.9304 8.35234 26.9304 7.77909C26.9304 5.28872 24.8732 3.26823 22.3375 3.26823C21.395 3.26823 20.5147 3.55016 19.7875 4.02943C18.4623 1.774 15.9888 0.260986 13.1518 0.260986C8.92251 0.260986 5.49699 3.62534 5.49699 7.77909C5.49699 7.90595 5.50177 8.03282 5.50656 8.15969C2.82738 9.08536 0.904114 11.5945 0.904114 14.5454C0.904114 18.2809 3.98995 21.3117 7.79343 21.3117H25.3995C28.7819 21.3117 31.5233 18.6192 31.5233 15.2972C31.5233 12.3886 29.4182 9.95934 26.6242 9.40488ZM20.266 13.5727L15.2234 18.5253C14.9267 18.8166 14.4387 18.8166 14.1421 18.5253L9.09953 13.5727C8.61632 13.0981 8.96078 12.2899 9.64015 12.2899H12.769V7.02728C12.769 6.61378 13.1135 6.27547 13.5345 6.27547H15.831C16.252 6.27547 16.5964 6.61378 16.5964 7.02728V12.2899H19.7253C20.4047 12.2899 20.7492 13.0981 20.266 13.5727Z" fill="#193713"/>
</svg>
