<svg width="12" height="11" viewBox="0 0 12 11" fill="none" xmlns="http://www.w3.org/2000/svg">
<path fill-rule="evenodd" clip-rule="evenodd" d="M10.5798 8.44849e-05C10.5802 0.000195855 10.5805 0.000370957 10.5811 0.00102327L11.499 0.918875C11.4996 0.919527 11.4998 0.919829 11.4999 0.920211C11.5 0.920569 11.5 0.920951 11.4999 0.921309C11.4998 0.921675 11.4996 0.921977 11.499 0.922629L6.92161 5.5L11.499 10.0774C11.4996 10.078 11.4998 10.0783 11.4999 10.0787C11.5 10.0791 11.5 10.0794 11.4999 10.0798C11.4998 10.0802 11.4996 10.0805 11.499 10.0811L10.5811 10.999C10.5805 10.9996 10.5802 10.9998 10.5798 10.9999C10.5794 11 10.5791 11 10.5787 10.9999C10.5783 10.9998 10.578 10.9996 10.5774 10.999L6 6.42161L1.42263 10.999C1.42199 10.9996 1.42167 10.9998 1.42131 10.9999C1.42095 11 1.42056 11 1.42019 10.9999C1.41984 10.9998 1.41953 10.9996 1.41887 10.999L0.501023 10.0811C0.500371 10.0805 0.500196 10.0802 0.500084 10.0798C0.499975 10.0794 0.499975 10.0791 0.500084 10.0787C0.500196 10.0783 0.500371 10.078 0.501023 10.0774L5.07838 5.5L0.501023 0.922629C0.500371 0.921993 0.500196 0.921675 0.500084 0.921309C0.499972 0.920946 0.499972 0.920558 0.500084 0.920195C0.500196 0.919845 0.500371 0.919527 0.501023 0.918875L1.41887 0.00102327C1.41953 0.000370957 1.41983 0.000195855 1.42021 8.44849e-05C1.42057 -2.48931e-05 1.42095 -2.48931e-05 1.42131 8.44849e-05C1.42167 0.000195855 1.42198 0.000370957 1.42263 0.00102327L6 4.57838L10.5774 0.00102327C10.578 0.000370957 10.5783 0.000195855 10.5787 8.44849e-05C10.5791 -2.81617e-05 10.5794 -2.81617e-05 10.5798 8.44849e-05H10.5798Z" fill="#193713"/>
</svg>
