<svg width="75" height="103" viewBox="0 0 75 103" fill="none" xmlns="http://www.w3.org/2000/svg">
<path d="M0.617065 41.922C0.617065 39.5086 1.82377 36.4454 4.14437 32.5468C6.46496 28.6482 8.78555 25.3994 10.9205 22.8932C11.4774 22.2434 12.22 21.3152 13.0554 20.2941C13.8909 19.273 14.4478 18.7161 14.5406 18.6233L17.9751 22.6147C20.5742 25.4922 22.8948 28.7411 25.0297 32.5468C27.1646 36.3526 28.2785 39.4158 28.2785 41.922C28.2785 45.7278 26.979 49.0694 24.2871 51.7613C21.688 54.4532 18.4392 55.8456 14.5406 55.8456C10.7348 55.8456 7.39319 54.4532 4.7013 51.7613C2.00942 48.9766 0.617065 45.7278 0.617065 41.922ZM29.5781 80.4438C29.5781 77.752 30.3206 74.6888 31.8058 71.0687C33.291 67.5414 35.1475 64.1997 37.3753 61.2293C41.6451 55.5671 45.6366 50.8331 49.5352 47.0273C49.9065 46.7488 50.7419 46.0063 51.9486 44.7996L54.2692 47.0273C57.8893 50.4618 61.9735 55.1958 66.5219 61.1365C68.9353 64.2925 70.7918 67.6342 72.277 71.1615C73.7621 74.6888 74.5047 77.752 74.5047 80.4438C74.5047 86.8487 72.3698 92.1396 68.0071 96.5023C63.6444 100.865 58.2606 103 51.9486 103C45.6366 103 40.3456 100.772 35.9829 96.4095C31.6202 92.0468 29.5781 86.663 29.5781 80.4438ZM43.6873 16.3955C43.6873 12.4041 46.7504 7.11314 52.9696 0.615479L55.2902 3.21454C57.0539 5.25666 58.6319 7.48443 60.0242 10.0835C61.4166 12.5897 62.1592 14.7247 62.1592 16.3955C62.1592 18.9946 61.2309 21.0367 59.4673 22.8003C57.7036 24.4712 55.5687 25.3994 52.9696 25.3994C50.2777 25.3994 48.05 24.564 46.2863 22.8003C44.6155 21.0367 43.6873 18.9017 43.6873 16.3955Z" fill="#193713"/>
</svg>
