<svg width="16" height="21" viewBox="0 0 16 21" fill="none" xmlns="http://www.w3.org/2000/svg">
<path d="M8.96368 6.09888V0.786377H1.15118C0.631653 0.786377 0.213684 1.20435 0.213684 1.72388V19.8489C0.213684 20.3684 0.631653 20.7864 1.15118 20.7864H14.2762C14.7957 20.7864 15.2137 20.3684 15.2137 19.8489V7.03638H9.90118C9.38556 7.03638 8.96368 6.6145 8.96368 6.09888ZM11.5098 14.5368H8.96368V17.6618C8.96368 18.0071 8.684 18.2868 8.33868 18.2868H7.08868C6.74337 18.2868 6.46368 18.0071 6.46368 17.6618V14.5368H3.91759C3.35978 14.5368 3.08126 13.8614 3.47736 13.468L7.24376 9.72974C7.50353 9.47153 7.92306 9.47153 8.18282 9.72974L11.9492 13.468C12.3457 13.8614 12.0676 14.5368 11.5098 14.5368ZM14.9402 4.88794L11.116 1.05981C10.9402 0.884033 10.702 0.786377 10.452 0.786377H10.2137V5.78638H15.2137V5.5481C15.2137 5.302 15.116 5.06372 14.9402 4.88794Z" fill="#193713"/>
</svg>
