<svg width="559" height="491" viewBox="0 0 559 491" fill="none" xmlns="http://www.w3.org/2000/svg">
<g clip-path="url(#clip0_206_2)">
<path fill-rule="evenodd" clip-rule="evenodd" d="M282.5 0.300092C426.4 0.500092 433.8 0.600092 440 2.40009C467.6 10.3001 490.8 31.9001 500.4 58.8001L503.5 67.5001L503.8 238C504.1 428.6 504.6 415.2 496.9 431.1C489.5 446.4 479 458.5 465.7 467.1L459.8 470.9L552.8 471.5L555.3 473.8C556.7 475.1 558.1 477.3 558.5 478.7C559.3 482.1 557.3 487.8 554.7 489.2C553 490.1 486.5 490.4 278.6 490.4L4.8 490.5L2.4 488.1C0.6 486.3 0 484.6 0 481.4C0 476.6 2.1 473.7 6.6 472C8.1 471.4 28.1 471 54.3 470.9C79.2 470.9 98.8 470.6 98 470.3C94.6 469 84.1 460.8 78.8 455.3C67.6 443.5 58.7 426.7 56.1 412.6C55.3 408.4 55 356.3 55 240.9C55 63.1001 54.8 69.5001 59.9 55.9001C63.9 45.3001 71 34.9001 80.4 25.5001C94 12.1001 107.6 4.70009 124.5 1.50009C130.2 0.400092 160.1 0.200092 282.5 0.300092ZM124.2 22.6001C103.5 28.1001 86.6 44.3001 78.8 66.0001L76.5 72.5001L76.2 238C76 401.2 76 403.5 78 411.4C80.9 423 86.8 432.7 96.7 442C105.1 450 113.1 454.7 122.6 457.2C126.5 458.2 157.3 458.5 280.5 458.5C422.4 458.5 433.9 458.4 439 456.8C447.3 454.2 456.6 448.3 464.4 440.5C472 433 476.7 425.9 480.3 416.4L482.5 410.5V71.5001L480.2 65.0001C473 45.1001 453.4 27.1001 433.8 22.5001C424.6 20.3001 132.3 20.4001 124.2 22.6001Z" fill="url(#paint0_linear_206_2)"/>
<path fill-rule="evenodd" clip-rule="evenodd" d="M293.4 93.9001C299.3 96.5001 306 102.8 308.8 108.3C315.7 122.1 312.8 136.3 300.7 147.8C297.6 150.6 294.7 153 294.1 153C293.6 153 292.4 153.7 291.6 154.6C290.2 155.9 290 160.2 290 185.7V215.2L295.8 208.5C306.5 195.9 323.7 184.9 345.5 176.5C359.2 171.2 383.4 164 388.7 163.7C391.9 163.5 392.4 163.8 393.3 166.5C393.8 168.1 394.3 177.8 394.4 188C394.4 205.8 394.3 207 391.2 219C385.5 240.7 377.3 254.8 361.5 270.5C345.5 286.3 319.2 297 296.3 297H290V354H371.9C452.8 354 453.8 354 456.3 356C461.3 360 460.4 369 454.7 372.2C451.7 373.9 113.6 374.7 107.8 373C101.1 371.1 98.7 361.8 103.5 356.6L105.9 354H269L268.8 325.7L268.5 297.5L258.5 296.7C234.2 294.9 212.3 285.2 195.9 269C186.1 259.3 180.4 251.3 175 239.6C166.2 220.9 162.5 197.2 164.8 175.8C165.5 169.6 166.5 164.1 167 163.6C167.6 163 172.2 163.8 178.7 165.5C218.6 175.8 242.7 187.6 260.6 205.5L269 213.9V155.3L265 153.5C259.6 151.1 252.4 143.2 249.3 136.3C241 118.2 251.8 97.1001 271.7 92.0001C277.2 90.6001 288.2 91.6001 293.4 93.9001ZM279.8 112C272.2 112.1 267.5 117 267.7 124.7C267.8 129.5 270.2 132.5 275.5 134.5C279.5 136.1 280.4 136.1 283.7 134.9C292.5 131.5 294.4 121.5 287.6 115.3C284.7 112.6 283.2 112 279.8 112ZM187.6 189.4C185.8 188.7 185.7 189.1 186.3 198.1C188.4 228.4 202 251.5 225.8 265.6C236.6 271.9 245.5 274.4 263.9 276.5L269.3 277.1L268.6 267.7C267.6 253.1 264.3 244 256.1 233C242.6 215 224.3 202.5 198 193.2C193.3 191.5 188.6 189.8 187.6 189.4ZM373.2 189.1C372.8 189.1 367.1 191 360.5 193.4C336.8 201.8 322.7 210.4 311 223.5C296.6 239.6 291.5 250.8 290.9 267.5L290.5 276.5L297 276.2C318.7 275.1 335.1 267.9 350 253C359.8 243.2 365.4 233.7 369.4 219.8C371.7 211.8 372.4 207.7 373.5 194.2C373.7 191.4 373.6 189 373.2 189.1Z" fill="url(#paint1_linear_206_2)"/>
<path d="M125.5 400.8C117.9 403.3 115.6 411 120.6 416.9L123.2 420H279.9H436.7L439.4 417.5C444.1 413.1 442.5 404.3 436.3 401.1C433.9 399.9 129.2 399.6 125.5 400.8Z" fill="url(#paint2_linear_206_2)"/>
</g>
<defs>
<linearGradient id="paint0_linear_206_2" x1="558.678" y1="490.5" x2="-92.1459" y2="255.819" gradientUnits="userSpaceOnUse">
<stop stop-color="#2E5725"/>
<stop offset="1" stop-color="#71A334"/>
</linearGradient>
<linearGradient id="paint1_linear_206_2" x1="459.567" y1="373.943" x2="53.0528" y2="210.727" gradientUnits="userSpaceOnUse">
<stop stop-color="#2E5725"/>
<stop offset="1" stop-color="#71A334"/>
</linearGradient>
<linearGradient id="paint2_linear_206_2" x1="442.125" y1="420" x2="426.549" y2="339.972" gradientUnits="userSpaceOnUse">
<stop stop-color="#2E5725"/>
<stop offset="1" stop-color="#71A334"/>
</linearGradient>
<clipPath id="clip0_206_2">
<rect width="559" height="491" fill="white"/>
</clipPath>
</defs>
</svg>
