<svg version="1.2" xmlns="http://www.w3.org/2000/svg" viewBox="0 0 559 491" width="559" height="491">
	<title>LogoSmartFarm</title>
	<style>
		.s0 { fill: #ffffff } 
	</style>
	<g id="Layer">
		<path id="Layer" fill-rule="evenodd" class="s0" d="m282.5 0.3c143.9 0.2 151.3 0.3 157.5 2.1 27.6 7.9 50.8 29.5 60.4 56.4l3.1 8.7 0.3 170.5c0.3 190.6 0.8 177.2-6.9 193.1-7.4 15.3-17.9 27.4-31.2 36l-5.9 3.8 93 0.6 2.5 2.3c1.4 1.3 2.8 3.5 3.2 4.9 0.8 3.4-1.2 9.1-3.8 10.5-1.7 0.9-68.2 1.2-276.1 1.2l-273.8 0.1-2.4-2.4c-1.8-1.8-2.4-3.5-2.4-6.7 0-4.8 2.1-7.7 6.6-9.4 1.5-0.6 21.5-1 47.7-1.1 24.9 0 44.5-0.3 43.7-0.6-3.4-1.3-13.9-9.5-19.2-15-11.2-11.8-20.1-28.6-22.7-42.7-0.8-4.2-1.1-56.3-1.1-171.7 0-177.8-0.2-171.4 4.9-185 4-10.6 11.1-21 20.5-30.4 13.6-13.4 27.2-20.8 44.1-24 5.7-1.1 35.6-1.3 158-1.2zm-158.3 22.3c-20.7 5.5-37.6 21.7-45.4 43.4l-2.3 6.5-0.3 165.5c-0.2 163.2-0.2 165.5 1.8 173.4 2.9 11.6 8.8 21.3 18.7 30.6 8.4 8 16.4 12.7 25.9 15.2 3.9 1 34.7 1.3 157.9 1.3 141.9 0 153.4-0.1 158.5-1.7 8.3-2.6 17.6-8.5 25.4-16.3 7.6-7.5 12.3-14.6 15.9-24.1l2.2-5.9v-339l-2.3-6.5c-7.2-19.9-26.8-37.9-46.4-42.5-9.2-2.2-301.5-2.1-309.6 0.1z"/>
		<path id="Layer" fill-rule="evenodd" class="s0" d="m293.4 93.9c5.9 2.6 12.6 8.9 15.4 14.4 6.9 13.8 4 28-8.1 39.5-3.1 2.8-6 5.2-6.6 5.2-0.5 0-1.7 0.7-2.5 1.6-1.4 1.3-1.6 5.6-1.6 31.1v29.5l5.8-6.7c10.7-12.6 27.9-23.6 49.7-32 13.7-5.3 37.9-12.5 43.2-12.8 3.2-0.2 3.7 0.1 4.6 2.8 0.5 1.6 1 11.3 1.1 21.5 0 17.8-0.1 19-3.2 31-5.7 21.7-13.9 35.8-29.7 51.5-16 15.8-42.3 26.5-65.2 26.5h-6.3v57h81.9c80.9 0 81.9 0 84.4 2 5 4 4.1 13-1.6 16.2-3 1.7-341.1 2.5-346.9 0.8-6.7-1.9-9.1-11.2-4.3-16.4l2.4-2.6h163.1l-0.2-28.3-0.3-28.2-10-0.8c-24.3-1.8-46.2-11.5-62.6-27.7-9.8-9.7-15.5-17.7-20.9-29.4-8.8-18.7-12.5-42.4-10.2-63.8 0.7-6.2 1.7-11.7 2.2-12.2 0.6-0.6 5.2 0.2 11.7 1.9 39.9 10.3 64 22.1 81.9 40l8.4 8.4v-58.6l-4-1.8c-5.4-2.4-12.6-10.3-15.7-17.2-8.3-18.1 2.5-39.2 22.4-44.3 5.5-1.4 16.5-0.4 21.7 1.9zm-13.6 18.1c-7.6 0.1-12.3 5-12.1 12.7 0.1 4.8 2.5 7.8 7.8 9.8 4 1.6 4.9 1.6 8.2 0.4 8.8-3.4 10.7-13.4 3.9-19.6-2.9-2.7-4.4-3.3-7.8-3.3zm-92.2 77.4c-1.8-0.7-1.9-0.3-1.3 8.7 2.1 30.3 15.7 53.4 39.5 67.5 10.8 6.3 19.7 8.8 38.1 10.9l5.4 0.6-0.7-9.4c-1-14.6-4.3-23.7-12.5-34.7-13.5-18-31.8-30.5-58.1-39.8-4.7-1.7-9.4-3.4-10.4-3.8zm185.6-0.3c-0.4 0-6.1 1.9-12.7 4.3-23.7 8.4-37.8 17-49.5 30.1-14.4 16.1-19.5 27.3-20.1 44l-0.4 9 6.5-0.3c21.7-1.1 38.1-8.3 53-23.2 9.8-9.8 15.4-19.3 19.4-33.2 2.3-8 3-12.1 4.1-25.6 0.2-2.8 0.1-5.2-0.3-5.1z"/>
		<path id="Layer" class="s0" d="m125.5 400.8c-7.6 2.5-9.9 10.2-4.9 16.1l2.6 3.1h156.7 156.8l2.7-2.5c4.7-4.4 3.1-13.2-3.1-16.4-2.4-1.2-307.1-1.5-310.8-0.3z"/>
	</g>
</svg>