<svg width="38" height="22" viewBox="0 0 38 22" fill="none" xmlns="http://www.w3.org/2000/svg">
<path d="M34.9786 21.6873C33.383 21.6873 32.0902 20.3938 32.0902 18.7988C32.0902 18.4712 32.1566 18.1622 32.2565 17.8687L25.2156 11.8058C24.7216 12.1992 24.1052 12.4441 23.4247 12.4441C22.6396 12.4441 21.9297 12.1287 21.4097 11.6203L15.8944 14.3817C15.787 15.8797 14.5513 17.0657 13.0262 17.0657C11.4312 17.0657 10.1377 15.7722 10.1377 14.1772C10.1377 13.7405 10.2417 13.3309 10.415 12.96L4.79167 6.47593C4.47625 6.59378 4.13945 6.66714 3.78301 6.66714C2.18799 6.66714 0.894531 5.37368 0.894531 3.77866C0.894531 2.18364 2.18799 0.890179 3.78301 0.890179C5.37803 0.890179 6.6715 2.18364 6.6715 3.77866C6.6715 4.16283 6.59293 4.52847 6.45659 4.86357L12.1712 11.432C12.4433 11.3476 12.7263 11.2887 13.0262 11.2887C13.8667 11.2887 14.6165 11.6538 15.1445 12.2275L20.5391 9.5227C20.5582 7.94328 21.8406 6.66714 23.4247 6.66714C25.0203 6.66714 26.3132 7.96061 26.3132 9.55563C26.3132 9.60704 26.301 9.65499 26.2982 9.70583L33.8117 16.1604C34.1693 16.0021 34.5621 15.9103 34.9786 15.9103C36.5743 15.9103 37.8671 17.2032 37.8671 18.7988C37.8671 20.3938 36.5742 21.6873 34.9786 21.6873Z" fill="#193713"/>
</svg>
