<svg width="38" height="22" viewBox="0 0 38 22" fill="none" xmlns="http://www.w3.org/2000/svg">
<path d="M34.9786 0.325928C33.383 0.325928 32.0902 1.61939 32.0902 3.21441C32.0902 3.54196 32.1566 3.85103 32.2565 4.1445L25.2156 10.2074C24.7216 9.81402 24.1052 9.56907 23.4247 9.56907C22.6396 9.56907 21.9297 9.8845 21.4097 10.3929L15.8944 7.63148C15.787 6.13351 14.5513 4.9475 13.0262 4.9475C11.4312 4.9475 10.1377 6.24096 10.1377 7.83598C10.1377 8.27272 10.2417 8.68231 10.415 9.05319L4.79167 15.5373C4.47625 15.4194 4.13945 15.346 3.78301 15.346C2.18799 15.346 0.894531 16.6395 0.894531 18.2345C0.894531 19.8295 2.18799 21.123 3.78301 21.123C5.37803 21.123 6.6715 19.8295 6.6715 18.2345C6.6715 17.8504 6.59293 17.4847 6.45659 17.1496L12.1712 10.5812C12.4433 10.6655 12.7263 10.7245 13.0262 10.7245C13.8667 10.7245 14.6165 10.3594 15.1445 9.78571L20.5391 12.4905C20.5582 14.0699 21.8406 15.346 23.4247 15.346C25.0203 15.346 26.3132 14.0526 26.3132 12.4576C26.3132 12.4061 26.301 12.3582 26.2982 12.3074L33.8117 5.85275C34.1693 6.01104 34.5621 6.10289 34.9786 6.10289C36.5743 6.10289 37.8671 4.81001 37.8671 3.21441C37.8671 1.61939 36.5742 0.325928 34.9786 0.325928Z" fill="#193713"/>
</svg>
