<svg width="25" height="26" viewBox="0 0 25 26" fill="none" xmlns="http://www.w3.org/2000/svg">
<path d="M12.1162 2.39844C6.26163 2.39844 1.51453 7.14554 1.51453 13.0001C1.51453 18.8548 6.26163 23.6019 12.1162 23.6019C17.9708 23.6019 22.7179 18.8548 22.7179 13.0001C22.7179 7.14554 17.9708 2.39844 12.1162 2.39844ZM12.1162 21.8034C7.25554 21.8034 3.31303 17.8608 3.31303 13.0001C3.31303 8.13945 7.25554 4.19694 12.1162 4.19694C16.9769 4.19694 20.9194 8.13945 20.9194 13.0001C20.9194 17.8608 16.9769 21.8034 12.1162 21.8034Z" fill="white"/>
<path d="M12.1163 4.19702C7.25556 4.19702 3.31305 8.13953 3.31305 13.0002C3.31305 17.8609 7.25556 21.8034 12.1163 21.8034C16.9769 21.8034 20.9195 17.8609 20.9195 13.0002C20.9195 8.13953 16.9769 4.19702 12.1163 4.19702ZM16.293 16.2588L15.6162 17.1817C15.6015 17.2018 15.583 17.2188 15.5617 17.2317C15.5404 17.2446 15.5167 17.2532 15.4921 17.257C15.4674 17.2607 15.4423 17.2595 15.4181 17.2535C15.394 17.2475 15.3712 17.2368 15.3512 17.222L11.4371 14.368C11.4127 14.3505 11.3929 14.3274 11.3793 14.3006C11.3657 14.2739 11.3587 14.2442 11.359 14.2142V7.69937C11.359 7.59525 11.4442 7.51006 11.5483 7.51006H12.6866C12.7907 7.51006 12.8759 7.59525 12.8759 7.69937V13.5563L16.2504 15.9962C16.3356 16.0553 16.3546 16.1736 16.293 16.2588Z" fill="white" fill-opacity="0.2"/>
<path d="M16.2504 15.9961L12.8759 13.5563V7.69933C12.8759 7.5952 12.7907 7.51001 12.6866 7.51001H11.5483C11.4442 7.51001 11.359 7.5952 11.359 7.69933V14.2142C11.359 14.2757 11.3874 14.3325 11.4371 14.368L15.3512 17.2219C15.4364 17.2835 15.5547 17.2669 15.6162 17.1817L16.293 16.2588C16.3546 16.1736 16.3356 16.0553 16.2504 15.9961Z" fill="white"/>
</svg>
