<svg width="92" height="139" viewBox="0 0 92 139" fill="none" xmlns="http://www.w3.org/2000/svg">
<path d="M6.43863 106.144C5.3819 106.144 4.43496 105.973 3.59781 105.629C2.76066 105.286 2.0882 104.779 1.58042 104.106C1.08636 103.434 0.825612 102.624 0.798165 101.677H4.54475C4.59965 102.212 4.78492 102.624 5.10057 102.912C5.41621 103.187 5.82793 103.324 6.33571 103.324C6.85721 103.324 7.26892 103.207 7.57085 102.974C7.87277 102.727 8.02373 102.391 8.02373 101.965C8.02373 101.608 7.90022 101.313 7.65319 101.08C7.41988 100.847 7.12482 100.655 6.768 100.504C6.42491 100.353 5.93085 100.181 5.28584 99.989C4.35262 99.7008 3.59095 99.4126 3.00083 99.1244C2.41071 98.8362 1.90293 98.4108 1.47749 97.8481C1.05205 97.2854 0.839336 96.5512 0.839336 95.6454C0.839336 94.3005 1.32653 93.2506 2.30092 92.4958C3.27531 91.7273 4.54475 91.343 6.10926 91.343C7.70122 91.343 8.98439 91.7273 9.95878 92.4958C10.9332 93.2506 11.4547 94.3073 11.5233 95.666H7.71495C7.6875 95.1994 7.51595 94.8357 7.2003 94.575C6.88466 94.3005 6.47981 94.1632 5.98575 94.1632C5.56031 94.1632 5.21722 94.2799 4.95647 94.5132C4.69572 94.7328 4.56534 95.0553 4.56534 95.4807C4.56534 95.9473 4.78492 96.311 5.22408 96.5718C5.66324 96.8325 6.34943 97.1139 7.28265 97.4158C8.21586 97.7314 8.97067 98.0334 9.54707 98.3216C10.1372 98.6097 10.645 99.0283 11.0704 99.5773C11.4958 100.126 11.7086 100.833 11.7086 101.698C11.7086 102.521 11.4958 103.269 11.0704 103.941C10.6587 104.614 10.0548 105.149 9.25887 105.547C8.46289 105.945 7.52281 106.144 6.43863 106.144ZM33.3283 91.5489V106H29.8082V97.3334L26.5762 106H23.7354L20.4829 97.3129V106H16.9627V91.5489H21.121L25.1764 101.553L29.1906 91.5489H33.3283ZM47.9435 103.447H42.5501L41.6855 106H38.0006L43.2294 91.5489H47.3053L52.5341 106H48.8081L47.9435 103.447ZM47.0377 100.73L45.2468 95.4396L43.4764 100.73H47.0377ZM64.583 106L61.5775 100.545H60.7335V106H57.2133V91.5489H63.1214C64.2605 91.5489 65.228 91.7479 66.024 92.1459C66.8337 92.5438 67.4375 93.0928 67.8355 93.7927C68.2335 94.4789 68.4325 95.2474 68.4325 96.0983C68.4325 97.059 68.158 97.9167 67.6091 98.6715C67.0738 99.4263 66.2779 99.9615 65.2211 100.277L68.556 106H64.583ZM60.7335 98.0539H62.9155C63.5606 98.0539 64.0409 97.8961 64.3565 97.5805C64.6859 97.2648 64.8506 96.8188 64.8506 96.2424C64.8506 95.6934 64.6859 95.2611 64.3565 94.9455C64.0409 94.6299 63.5606 94.472 62.9155 94.472H60.7335V98.0539ZM84.1258 91.5489V94.3691H80.2969V106H76.7768V94.3691H72.9478V91.5489H84.1258ZM22.6714 118.549V121.369H16.7839V124.416H21.1892V127.154H16.7839V133H13.2637V118.549H22.6714ZM36.6053 130.447H31.2119L30.3473 133H26.6624L31.8912 118.549H35.9671L41.1959 133H37.4699L36.6053 130.447ZM35.6995 127.73L33.9086 122.44L32.1382 127.73H35.6995ZM53.2448 133L50.2393 127.545H49.3953V133H45.8751V118.549H51.7832C52.9223 118.549 53.8898 118.748 54.6858 119.146C55.4955 119.544 56.0993 120.093 56.4973 120.793C56.8953 121.479 57.0943 122.247 57.0943 123.098C57.0943 124.059 56.8198 124.917 56.2709 125.672C55.7356 126.426 54.9397 126.962 53.8829 127.277L57.2178 133H53.2448ZM49.3953 125.054H51.5773C52.2224 125.054 52.7027 124.896 53.0183 124.58C53.3477 124.265 53.5124 123.819 53.5124 123.242C53.5124 122.693 53.3477 122.261 53.0183 121.946C52.7027 121.63 52.2224 121.472 51.5773 121.472H49.3953V125.054ZM78.7575 118.549V133H75.2373V124.333L72.0054 133H69.1646L65.912 124.313V133H62.3919V118.549H66.5502L70.6056 128.553L74.6198 118.549H78.7575Z" fill="url(#paint0_linear_305_2953)"/>
<path fill-rule="evenodd" clip-rule="evenodd" d="M47.3601 0.00351214C69.5767 0.03439 70.7192 0.0498289 71.6764 0.32773C75.9375 1.5474 79.5194 4.88221 81.0015 9.03528L81.4801 10.3785L81.5264 36.7018C81.5727 66.1284 81.6499 64.0596 80.4611 66.5144C79.3187 68.8766 77.6976 70.7447 75.6442 72.0724L74.7333 72.6591L89.0915 72.7517L89.4775 73.1068C89.6936 73.3075 89.9098 73.6472 89.9715 73.8633C90.095 74.3883 89.7863 75.2683 89.3848 75.4844C89.1224 75.6234 78.8555 75.6697 46.758 75.6697L4.48619 75.6851L4.11565 75.3146C3.83775 75.0367 3.74512 74.7742 3.74512 74.2802C3.74512 73.5391 4.06933 73.0914 4.76409 72.8289C4.99567 72.7363 8.08346 72.6745 12.1285 72.6591C15.9727 72.6591 18.9988 72.6128 18.8753 72.5665C18.3503 72.3658 16.7293 71.0998 15.911 70.2506C14.1818 68.4288 12.8078 65.8351 12.4064 63.6582C12.2828 63.0098 12.2365 54.9661 12.2365 37.1496C12.2365 9.69916 12.2056 10.6873 12.993 8.58756C13.6106 6.95103 14.7068 5.34538 16.158 3.89412C18.2577 1.82531 20.3574 0.682825 22.9666 0.188779C23.8466 0.0189511 28.4628 -0.0119268 47.3601 0.00351214ZM22.9203 3.44639C19.7244 4.29553 17.1152 6.79664 15.911 10.1469L15.5559 11.1504L15.5096 36.7018C15.4787 61.8982 15.4787 62.2533 15.7875 63.4729C16.2352 65.2639 17.1461 66.7614 18.6746 68.1973C19.9714 69.4324 21.2065 70.158 22.6732 70.544C23.2754 70.6984 28.0305 70.7447 47.0513 70.7447C68.9591 70.7447 70.7346 70.7292 71.522 70.4822C72.8034 70.0808 74.2393 69.1699 75.4435 67.9657C76.6168 66.8078 77.3425 65.7116 77.8983 64.2449L78.2379 63.334V10.996L77.8828 9.9925C76.7712 6.92015 73.7452 4.14114 70.7192 3.43095C69.2988 3.0913 24.1708 3.10674 22.9203 3.44639Z" fill="url(#paint1_linear_305_2953)"/>
<path fill-rule="evenodd" clip-rule="evenodd" d="M49.0425 14.4544C49.9534 14.8558 50.9878 15.8284 51.4201 16.6776C52.4854 18.8082 52.0377 21.0005 50.1696 22.776C49.691 23.2082 49.2432 23.5788 49.1506 23.5788C49.0734 23.5788 48.8881 23.6869 48.7646 23.8258C48.5485 24.0265 48.5176 24.6904 48.5176 28.6273V33.1818L49.4131 32.1474C51.065 30.2021 53.7205 28.5038 57.0862 27.2069C59.2013 26.3887 62.9376 25.2771 63.7558 25.2307C64.2499 25.1999 64.3271 25.2462 64.466 25.663C64.5432 25.9101 64.6204 27.4076 64.6358 28.9824C64.6358 31.7305 64.6204 31.9158 64.1418 33.7685C63.2618 37.1187 61.9958 39.2956 59.5564 41.7195C57.0862 44.1589 53.0258 45.8108 49.4903 45.8108H48.5176V54.611H61.1621C73.6522 54.611 73.8066 54.611 74.1925 54.9198C74.9645 55.5374 74.8255 56.9269 73.9455 57.4209C73.4824 57.6834 21.2833 57.8069 20.3879 57.5444C19.3535 57.2511 18.9829 55.8153 19.724 55.0124L20.0945 54.611H45.2754L45.2446 50.2418L45.1982 45.888L43.6543 45.7645C39.9027 45.4866 36.5216 43.989 33.9896 41.4879C32.4766 39.9904 31.5965 38.7552 30.7628 36.9489C29.4042 34.0618 28.833 30.4028 29.1881 27.0989C29.2961 26.1416 29.4505 25.2925 29.5277 25.2153C29.6204 25.1227 30.3306 25.2462 31.3341 25.5086C37.4942 27.0989 41.215 28.9206 43.9786 31.6842L45.2754 32.9811V23.9339L44.6579 23.656C43.8242 23.2854 42.7126 22.0658 42.234 21.0005C40.9525 18.206 42.6199 14.9484 45.6923 14.161C46.5414 13.9449 48.2397 14.0993 49.0425 14.4544ZM46.9428 17.2488C45.7695 17.2643 45.0439 18.0208 45.0747 19.2096C45.0902 19.9506 45.4607 20.4138 46.279 20.7226C46.8965 20.9696 47.0355 20.9696 47.545 20.7843C48.9036 20.2594 49.1969 18.7155 48.1471 17.7583C47.6993 17.3415 47.4678 17.2488 46.9428 17.2488ZM32.7082 29.1985C32.4303 29.0905 32.4148 29.1522 32.5074 30.5417C32.8317 35.2197 34.9314 38.7861 38.6058 40.963C40.2732 41.9357 41.6473 42.3216 44.4881 42.6459L45.3218 42.7385L45.2137 41.2872C45.0593 39.0331 44.5498 37.6282 43.2838 35.9299C41.1996 33.1509 38.3742 31.2211 34.3138 29.7852C33.5882 29.5228 32.8625 29.2603 32.7082 29.1985ZM61.3628 29.1522C61.301 29.1522 60.421 29.4456 59.4021 29.8161C55.743 31.113 53.5661 32.4407 51.7598 34.4632C49.5366 36.9489 48.7492 38.6781 48.6566 41.2564L48.5948 42.6459L49.5983 42.5995C52.9486 42.4297 55.4806 41.3181 57.781 39.0177C59.294 37.5047 60.1586 36.038 60.7761 33.892C61.1312 32.6569 61.2393 32.0239 61.4091 29.9396C61.44 29.5073 61.4246 29.1368 61.3628 29.1522Z" fill="url(#paint2_linear_305_2953)"/>
<path d="M23.121 61.8364C21.9477 62.2224 21.5926 63.4112 22.3645 64.3221L22.7659 64.8007H46.9587H71.167L71.5838 64.4147C72.3094 63.7354 72.0624 62.3768 71.1052 61.8828C70.7347 61.6975 23.6923 61.6512 23.121 61.8364Z" fill="url(#paint3_linear_305_2953)"/>
<defs>
<linearGradient id="paint0_linear_305_2953" x1="80.0148" y1="112.206" x2="13.359" y2="86.3046" gradientUnits="userSpaceOnUse">
<stop offset="0.136667" stop-color="#71A334"/>
<stop offset="0.951667" stop-color="#2E5725"/>
</linearGradient>
<linearGradient id="paint1_linear_305_2953" x1="89.9991" y1="75.6851" x2="-10.4812" y2="39.453" gradientUnits="userSpaceOnUse">
<stop stop-color="#2E5725"/>
<stop offset="1" stop-color="#71A334"/>
</linearGradient>
<linearGradient id="paint2_linear_305_2953" x1="74.6969" y1="57.69" x2="11.9355" y2="32.4911" gradientUnits="userSpaceOnUse">
<stop stop-color="#2E5725"/>
<stop offset="1" stop-color="#71A334"/>
</linearGradient>
<linearGradient id="paint3_linear_305_2953" x1="72.0046" y1="64.8007" x2="69.5998" y2="52.4452" gradientUnits="userSpaceOnUse">
<stop stop-color="#2E5725"/>
<stop offset="1" stop-color="#71A334"/>
</linearGradient>
</defs>
</svg>
