<svg width="79" height="99" viewBox="0 0 79 99" fill="none" xmlns="http://www.w3.org/2000/svg">
<path d="M23.4661 0.894536C17.5185 0.899269 10.7637 4.26288 5.76573 12.2472C20.3318 7.22948 20.1531 16.1735 32.5256 19.852C35.157 23.6061 36.9533 28.3081 38.1752 34.7147C38.3925 36.5958 38.4685 38.6117 38.4829 40.6993C38.5158 45.5421 38.1248 50.7278 37.8506 55.0486V55.0503C37.7673 56.4873 38.4631 58.7508 39.761 61.0938C40.326 62.1138 41.0058 63.1474 41.7335 64.1604C42.3396 51.9585 41.9484 40.8771 44.053 30.9355C45.5184 26.9403 47.4949 23.5859 49.9873 20.8185C63.9003 17.7717 62.1591 8.7772 79 13.9985C72.289 5.97175 64.1431 2.6598 57.5219 2.77835C48.4838 2.94012 42.2888 9.49364 46.4609 19.1722C44.115 21.9771 42.1927 25.2441 40.7248 28.969C39.5984 25.0262 38.1367 21.6601 36.2895 18.7394C39.2471 8.18384 32.235 0.88795 23.4659 0.894536H23.4661ZM30.7178 35.866L15.1813 36.2297L0.894531 55.7799L15.7388 69.6147L34.2604 67.8288L15.9348 75.2933L4.12519 63.9956L11.8848 81.3158L34.6087 87.2465L14.1545 86.3827L15.3 88.94L49.6744 98.7239L75.9836 84.1359V84.1338L69.4642 74.8483L49.9498 83.568L70.3531 68.7256L76.1359 77.3588L76.5022 61.0605L62.8074 44.9559L51.3551 42.361L46.332 49.8619L47.7624 55.2448L45.8374 58.2908C45.7294 61.5283 45.5872 64.8758 45.3476 68.3279L50.1225 75.0218L42.6926 83.6063L45.8858 90.1639L38.2468 82.8648L45.2342 74.7921L42.9509 71.5917L41.9465 70.5075C39.8851 68.2818 37.8885 65.6515 36.3962 62.9579C35.3877 61.1378 34.5829 59.2948 34.2145 57.4593L30.4856 49.9397L33.6415 41.7033L33.7556 41.6934L30.7178 35.8658V35.866Z" fill="#193713"/>
</svg>
