<svg width="44" height="99" viewBox="0 0 44 99" fill="none" xmlns="http://www.w3.org/2000/svg">
<path d="M30.9385 77.3464C30.9376 79.0478 30.469 80.7162 29.5841 82.1693C28.6991 83.6225 27.4317 84.8044 25.9204 85.5859C24.4092 86.3674 22.7121 86.7185 21.0148 86.6008C19.3175 86.4831 17.6852 85.9011 16.2962 84.9185C14.9073 83.9358 13.8152 82.5903 13.1393 81.0289C12.4633 79.4675 12.2296 77.7504 12.4636 76.0652C12.6975 74.3799 13.3902 72.7914 14.4659 71.4733C15.5416 70.1551 16.959 69.1579 18.5631 68.5908V58.7833C18.5631 57.9628 18.889 57.1758 19.4692 56.5956C20.0495 56.0154 20.8364 55.6895 21.6569 55.6895C22.4775 55.6895 23.2644 56.0154 23.8446 56.5956C24.4248 57.1758 24.7508 57.9628 24.7508 58.7833V68.5908C26.5612 69.2309 28.1285 70.4167 29.2367 71.9848C30.3449 73.5529 30.9395 75.4262 30.9385 77.3464Z" fill="#193713"/>
<path d="M6.18771 15.4692C6.18771 11.3665 7.8175 7.43188 10.7185 4.53084C13.6196 1.62979 17.5543 0 21.6569 0C25.7596 0 29.6943 1.62979 32.5954 4.53084C35.4964 7.43188 37.1262 11.3665 37.1262 15.4692V62.1864C40.1107 65.2324 42.1295 69.0919 42.9295 73.2807C43.7294 77.4695 43.2748 81.8013 41.6228 85.7328C39.9708 89.6643 37.1948 93.0206 33.6429 95.3808C30.0911 97.741 25.9215 99 21.6569 99C17.3924 99 13.2228 97.741 9.67098 95.3808C6.11913 93.0206 3.34314 89.6643 1.69109 85.7328C0.0390524 81.8013 -0.415502 77.4695 0.384428 73.2807C1.18436 69.0919 3.20317 65.2324 6.18771 62.1864V15.4692ZM21.6569 6.1877C19.1953 6.1877 16.8345 7.16557 15.0939 8.9062C13.3533 10.6468 12.3754 13.0076 12.3754 15.4692V64.8904L11.3421 65.8185C9.00665 67.907 7.36044 70.6554 6.62129 73.7C5.88213 76.7446 6.08487 79.9418 7.20267 82.8687C8.32047 85.7955 10.3006 88.3139 12.8811 90.0907C15.4616 91.8675 18.5208 92.8188 21.6539 92.8188C24.7869 92.8188 27.8461 91.8675 30.4266 90.0907C33.0071 88.3139 34.9872 85.7955 36.105 82.8687C37.2228 79.9418 37.4256 76.7446 36.6864 73.7C35.9473 70.6554 34.3011 67.907 31.9657 65.8185L30.9385 64.8904V15.4692C30.9385 13.0076 29.9606 10.6468 28.22 8.9062C26.4794 7.16557 24.1186 6.1877 21.6569 6.1877Z" fill="#193713"/>
</svg>
